<?xml version="1.0" standalone="no"?><!DOCTYPE svg PUBLIC "-//W3C//DTD SVG 1.1//EN" "http://www.w3.org/Graphics/SVG/1.1/DTD/svg11.dtd"><svg t="1671176830040" class="icon" viewBox="0 0 1024 1024" version="1.1" xmlns="http://www.w3.org/2000/svg" p-id="9726" xmlns:xlink="http://www.w3.org/1999/xlink" width="200" height="200"><path d="M691.2 925.013333H124.586667c-37.546667 0-68.266667-30.72-68.266667-68.266666V339.626667c0-37.546667 30.72-68.266667 68.266667-68.266667h566.613333c37.546667 0 68.266667 30.72 68.266667 68.266667v517.12c0 37.546667-30.72 68.266667-68.266667 68.266666z" opacity=".3" p-id="9727"></path><path d="M896 954.026667h-768c-51.2 0-93.866667-42.666667-93.866667-93.866667V223.573333c0-51.2 42.666667-93.866667 93.866667-93.866666h768c51.2 0 93.866667 42.666667 93.866667 93.866666v638.293334c0 51.2-42.666667 92.16-93.866667 92.16z m-768-773.12c-23.893333 0-42.666667 18.773333-42.666667 42.666666v638.293334C85.333333 885.76 104.106667 904.533333 128 904.533333h768c23.893333 0 42.666667-18.773333 42.666667-42.666666V223.573333c0-23.893333-18.773333-42.666667-42.666667-42.666666h-768z" p-id="9728"></path><path d="M512 694.613333c-13.653333 0-25.6-11.946667-25.6-25.6v-165.546666c0-13.653333 11.946667-25.6 25.6-25.6s25.6 11.946667 25.6 25.6v165.546666c0 13.653333-11.946667 25.6-25.6 25.6z" p-id="9729"></path><path d="M512 769.706667m-40.96 0a40.96 40.96 0 1 0 81.92 0 40.96 40.96 0 1 0-81.92 0Z" p-id="9730"></path><path d="M256 244.053333c-13.653333 0-25.6-11.946667-25.6-25.6V95.573333c0-13.653333 11.946667-25.6 25.6-25.6s25.6 11.946667 25.6 25.6v122.88c0 13.653333-10.24 25.6-25.6 25.6zM768 244.053333c-13.653333 0-25.6-11.946667-25.6-25.6V95.573333c0-13.653333 11.946667-25.6 25.6-25.6s25.6 11.946667 25.6 25.6v122.88c0 13.653333-11.946667 25.6-25.6 25.6z" p-id="9731"></path><path d="M964.266667 368.64h-904.533334c-13.653333 0-25.6-11.946667-25.6-25.6s11.946667-25.6 25.6-25.6h902.826667c13.653333 0 25.6 11.946667 25.6 25.6s-10.24 25.6-23.893333 25.6z" p-id="9732"></path></svg>
