<?xml version="1.0" standalone="no"?><!DOCTYPE svg PUBLIC "-//W3C//DTD SVG 1.1//EN" "http://www.w3.org/Graphics/SVG/1.1/DTD/svg11.dtd"><svg t="1671176299072" class="icon" viewBox="0 0 1024 1024" version="1.1" xmlns="http://www.w3.org/2000/svg" p-id="1453" xmlns:xlink="http://www.w3.org/1999/xlink" width="200" height="200"><path d="M864.177565 27.351975H272.294201a135.255794 135.255794 0 0 0-134.14166 119.323686A135.255794 135.255794 0 0 0 18.828854 280.817321v591.939071a135.200087 135.200087 0 0 0 135.088674 135.032967h591.883364a135.255794 135.255794 0 0 0 134.14166-119.323686 135.3115 135.3115 0 0 0 119.323687-134.14166V162.440648A135.255794 135.255794 0 0 0 864.177565 27.351975z m-75.928191 447.658796v397.689914c0 23.396801-19.051681 42.448482-42.448482 42.448483H153.917528a42.504189 42.504189 0 0 1-42.504189-42.448483V475.010771h676.836035z m0-194.19345v101.664672H111.469046V280.817321c0-23.452508 19.051681-42.504189 42.504189-42.504189h591.883364c23.341095 0 42.392776 19.051681 42.392775 42.504189z m-42.448482-135.088673H233.243825a42.671309 42.671309 0 0 1 39.050376-25.792188h591.883364c23.396801 0 42.448482 19.051681 42.448482 42.504188v591.939071c0 17.436188-10.584267 32.476988-25.736481 38.994669V280.817321a135.255794 135.255794 0 0 0-135.088674-135.088673z" p-id="1454"></path><path d="M716.276357 264.161027c-25.513655 2.00544-46.347949 20.611468-46.403655 46.125122v0.111414a46.347949 46.347949 0 0 0 92.584484 0.055707 46.292242 46.292242 0 0 0-46.180829-46.292243zM538.627788 264.10532H183.442063a46.347949 46.347949 0 0 0 0 92.584485h355.185725c25.569361 0 46.347949-20.778588 46.347949-46.292242s-20.778588-46.292242-46.347949-46.292243z" p-id="1455"></path></svg>
