<?xml version="1.0" standalone="no"?><!DOCTYPE svg PUBLIC "-//W3C//DTD SVG 1.1//EN" "http://www.w3.org/Graphics/SVG/1.1/DTD/svg11.dtd"><svg t="1671176685606" class="icon" viewBox="0 0 1024 1024" version="1.1" xmlns="http://www.w3.org/2000/svg" p-id="5059" xmlns:xlink="http://www.w3.org/1999/xlink" width="200" height="200"><path d="M449.408 896H192a64 64 0 0 1-64-64V192a64 64 0 0 1 64-64h576a64 64 0 0 1 64 64v219.008c23.04 10.112 44.096 23.424 64 38.464V192a128 128 0 0 0-128-128H192a128 128 0 0 0-128 128v640a128 128 0 0 0 128 128h321.728a322.432 322.432 0 0 1-64.32-64z" p-id="5060"></path><path d="M704 448a256 256 0 1 0 0 512 256 256 0 0 0 0-512z m0 447.872a191.872 191.872 0 1 1 0-383.808 191.872 191.872 0 0 1 0 383.808z" p-id="5061"></path><path d="M800 672h-64V640a32 32 0 0 0-64 0v64a32 32 0 0 0 32 32h96a32 32 0 0 0 0-64zM438.848 265.216a31.808 31.808 0 0 0-44.992 0L287.232 371.84l-42.688-42.688a30.72 30.72 0 1 0-43.456 43.456l59.584 59.584c1.344 2.304 2.432 4.672 4.416 6.656 6.656 6.592 15.36 9.408 23.936 9.088a30.848 30.848 0 0 0 21.824-9.024c0.704-0.704 1.024-1.6 1.6-2.432l126.4-126.336a31.744 31.744 0 0 0 0-44.928zM544 320a32 32 0 0 0 0 64h192a32 32 0 0 0 0-64h-192zM393.856 489.216L287.232 595.84l-42.688-42.688a30.72 30.72 0 1 0-43.456 43.456l59.584 59.584c1.344 2.304 2.432 4.672 4.416 6.656 6.656 6.592 15.36 9.408 23.936 9.088a30.848 30.848 0 0 0 21.824-9.024c0.704-0.704 1.024-1.6 1.6-2.432l126.4-126.336a31.872 31.872 0 0 0-44.992-44.928z" p-id="5062"></path></svg>
